<svg width="38" height="40" viewBox="0 0 38 40" fill="none" xmlns="http://www.w3.org/2000/svg">
<g clip-path="url(#clip0_11295_32836)">
<path d="M1.62796 36.3554C1.62796 36.3554 1.64803 36.342 1.66141 36.342H2.13195C2.14533 36.342 2.15648 36.3465 2.1654 36.3554C2.17432 36.3642 2.17878 36.3753 2.17878 36.3887V39.0899C2.17878 39.1033 2.17432 39.1144 2.1654 39.1232C2.15648 39.1321 2.14533 39.1366 2.13195 39.1366H1.67925C1.65249 39.1366 1.63465 39.1255 1.6235 39.1055L0.584301 37.3964C0.584301 37.3964 0.57315 37.3853 0.56869 37.3875C0.56423 37.3875 0.55977 37.3941 0.55977 37.4052L0.56869 39.0922C0.56869 39.1055 0.56423 39.1166 0.55531 39.1255C0.54639 39.1343 0.53524 39.1388 0.521859 39.1388H0.0490893C0.035709 39.1388 0.0245588 39.1343 0.0156386 39.1255C0.0067184 39.1166 0.0022583 39.1055 0.0022583 39.0922V36.3909C0.0022583 36.3776 0.0067184 36.3665 0.0156386 36.3576C0.0245588 36.3487 0.035709 36.3443 0.0490893 36.3443H0.501789C0.528549 36.3443 0.54639 36.3554 0.55754 36.3753L1.59228 38.0778C1.59228 38.0778 1.60343 38.0889 1.60789 38.0867C1.61235 38.0867 1.61681 38.08 1.61681 38.0689L1.61235 36.3909C1.61235 36.3776 1.61681 36.3665 1.62573 36.3576L1.62796 36.3554Z" fill="#2F6EB6"/>
<path d="M4.17691 36.3554C4.17691 36.3554 4.19698 36.342 4.21036 36.342H4.6809C4.69428 36.342 4.70543 36.3465 4.71435 36.3554C4.72327 36.3642 4.72773 36.3753 4.72773 36.3887V39.0899C4.72773 39.1033 4.72327 39.1144 4.71435 39.1232C4.70543 39.1321 4.69428 39.1366 4.6809 39.1366H4.21036C4.19698 39.1366 4.18583 39.1321 4.17691 39.1232C4.16799 39.1144 4.16353 39.1033 4.16353 39.0899V37.9868C4.16353 37.9735 4.15684 37.9668 4.14346 37.9668H3.2559C3.24252 37.9668 3.23583 37.9735 3.23583 37.9868V39.0899C3.23583 39.1033 3.23137 39.1144 3.22245 39.1232C3.21353 39.1321 3.20238 39.1366 3.189 39.1366H2.71846C2.70508 39.1366 2.69393 39.1321 2.68501 39.1232C2.67609 39.1144 2.67163 39.1033 2.67163 39.0899V36.3887C2.67163 36.3753 2.67609 36.3642 2.68501 36.3554C2.69393 36.3465 2.70508 36.342 2.71846 36.342H3.189C3.20238 36.342 3.21353 36.3465 3.22245 36.3554C3.23137 36.3642 3.23583 36.3753 3.23583 36.3887V37.463C3.23583 37.4763 3.24252 37.4829 3.2559 37.4829H4.14346C4.15684 37.4829 4.16353 37.4763 4.16353 37.463V36.3887C4.16353 36.3753 4.16799 36.3642 4.17691 36.3554Z" fill="#2F6EB6"/>
<path d="M6.93546 39.0988L6.81504 38.7082C6.81504 38.7082 6.80389 38.6926 6.79496 38.6926H5.80705C5.80705 38.6926 5.79144 38.6971 5.78698 38.7082L5.67102 39.0988C5.6621 39.1255 5.64649 39.1388 5.61973 39.1388H5.10905C5.09344 39.1388 5.08006 39.1343 5.07337 39.1255C5.06445 39.1166 5.06445 39.1033 5.06891 39.0833L5.9364 36.382C5.94532 36.3554 5.96093 36.342 5.98769 36.342H6.61879C6.64555 36.342 6.66339 36.3554 6.67008 36.382L7.53757 39.0833C7.53757 39.0833 7.54203 39.0944 7.54203 39.1033C7.54203 39.1277 7.52642 39.1388 7.49743 39.1388H6.98675C6.95999 39.1388 6.94215 39.1255 6.93546 39.0988ZM6.51175 36.0624C6.51175 36.0846 6.49837 36.0934 6.47161 36.0934H6.13487C6.11034 36.0934 6.0925 36.0823 6.07912 36.0624L5.79367 35.6584C5.79367 35.6584 5.78475 35.6406 5.78475 35.6295C5.78475 35.6073 5.79813 35.5985 5.82489 35.5985H6.23076C6.25752 35.5985 6.27759 35.6096 6.29097 35.634L6.50283 36.038C6.50283 36.038 6.51175 36.0557 6.51175 36.0624ZM5.94978 38.2554H6.6567C6.67231 38.2554 6.679 38.2465 6.67231 38.2309L6.31104 37.0434C6.31104 37.0434 6.30435 37.0279 6.29989 37.0301C6.29543 37.0301 6.29097 37.0368 6.28874 37.0434L5.9364 38.2309C5.93417 38.2465 5.93863 38.2554 5.95201 38.2554H5.94978Z" fill="#2F6EB6"/>
<path d="M8.57679 39.121C8.57679 39.121 8.5701 39.0966 8.58125 39.0811L9.35953 37.7515C9.35953 37.7515 9.36399 37.736 9.35953 37.7271L8.58125 36.3975L8.57233 36.3731C8.57233 36.3509 8.58794 36.342 8.61693 36.342H9.12761C9.15437 36.342 9.17444 36.3531 9.18782 36.3731L9.70965 37.2876C9.71857 37.3031 9.72526 37.3031 9.73418 37.2876L10.256 36.3731C10.2694 36.3509 10.2895 36.342 10.3162 36.342H10.8224C10.8403 36.342 10.8537 36.3465 10.8626 36.3576C10.8715 36.3687 10.8693 36.382 10.8581 36.3975L10.0798 37.7271C10.0798 37.7271 10.0776 37.7426 10.0798 37.7515L10.8581 39.0811L10.867 39.1055C10.867 39.1277 10.8514 39.1366 10.8224 39.1366H10.3162C10.2895 39.1366 10.2694 39.1255 10.256 39.1055L9.73418 38.1954C9.72526 38.1799 9.71857 38.1799 9.70965 38.1954L9.18336 39.1055C9.16998 39.1277 9.14991 39.1366 9.12315 39.1366H8.61693C8.59909 39.1366 8.58571 39.1321 8.57679 39.121Z" fill="#2F6EB6"/>
<path d="M11.7078 39.05C11.5517 38.9701 11.429 38.8569 11.3421 38.7126C11.2551 38.5683 11.2127 38.3996 11.2127 38.211V36.3887C11.2127 36.3753 11.2172 36.3642 11.2261 36.3554C11.235 36.3465 11.2462 36.342 11.2595 36.342H11.7301C11.7435 36.342 11.7546 36.3465 11.7635 36.3554C11.7724 36.3642 11.7769 36.3753 11.7769 36.3887V38.2154C11.7769 38.3575 11.8215 38.4707 11.9063 38.5572C11.991 38.6438 12.107 38.686 12.2497 38.686C12.3924 38.686 12.5061 38.6416 12.5931 38.5572C12.6801 38.4729 12.7224 38.3575 12.7224 38.2154V36.3887C12.7224 36.3753 12.7269 36.3642 12.7358 36.3554C12.7448 36.3465 12.7559 36.342 12.7693 36.342H13.2398C13.2532 36.342 13.2644 36.3465 13.2733 36.3554C13.2822 36.3642 13.2867 36.3753 13.2867 36.3887V38.211C13.2867 38.3996 13.2421 38.5661 13.1573 38.7126C13.0703 38.8569 12.9477 38.9701 12.7916 39.05C12.6355 39.1299 12.4526 39.1699 12.2474 39.1699C12.0423 39.1699 11.8594 39.1299 11.7033 39.05H11.7078Z" fill="#2F6EB6"/>
<path d="M15.4141 39.0988L15.2937 38.7082C15.2937 38.7082 15.2825 38.6926 15.2736 38.6926H14.2857C14.2857 38.6926 14.2701 38.6971 14.2656 38.7082L14.1497 39.0988C14.1407 39.1255 14.1251 39.1388 14.0984 39.1388H13.5877C13.5721 39.1388 13.5587 39.1343 13.552 39.1255C13.5431 39.1166 13.5431 39.1033 13.5475 39.0833L14.415 36.382C14.424 36.3554 14.4396 36.342 14.4663 36.342H15.0974C15.1242 36.342 15.142 36.3554 15.1487 36.382L16.0162 39.0833C16.0162 39.0833 16.0207 39.0944 16.0207 39.1033C16.0207 39.1277 16.0051 39.1388 15.9761 39.1388H15.4654C15.4386 39.1388 15.4208 39.1255 15.4141 39.0988ZM14.1474 36.0912C14.1407 36.0801 14.143 36.0646 14.1541 36.049L14.4463 35.6295C14.4596 35.6073 14.4775 35.5985 14.502 35.5985H15.035C15.0595 35.5985 15.0774 35.6096 15.0907 35.6295L15.3963 36.049C15.3963 36.049 15.4074 36.069 15.4074 36.0779C15.4074 36.1001 15.3918 36.109 15.3628 36.109H15.0015C14.977 36.109 14.9592 36.0979 14.9458 36.0779L14.7852 35.8337C14.7763 35.8182 14.7696 35.8182 14.7607 35.8337L14.6001 36.0779C14.5867 36.1001 14.5689 36.109 14.5444 36.109H14.1831C14.1653 36.109 14.1519 36.1023 14.1452 36.0912H14.1474ZM14.4262 38.2554H15.1331C15.1487 38.2554 15.1554 38.2465 15.1487 38.2309L14.7875 37.0434C14.7875 37.0434 14.7808 37.0279 14.7763 37.0301C14.7718 37.0301 14.7674 37.0368 14.7652 37.0434L14.4128 38.2309C14.4106 38.2465 14.415 38.2554 14.4284 38.2554H14.4262ZM15.3829 35.7783C15.3829 35.7783 15.3784 35.7538 15.3873 35.7383L15.5992 35.3343C15.6103 35.3099 15.6304 35.2988 15.6594 35.2988H16.0653C16.0831 35.2988 16.0965 35.3055 16.1032 35.3166C16.1099 35.3277 16.1076 35.3432 16.0965 35.3587L15.811 35.7627C15.7977 35.7849 15.7798 35.7938 15.7553 35.7938H15.4186C15.4007 35.7938 15.3873 35.7894 15.3829 35.7783Z" fill="#2F6EB6"/>
<path d="M18.001 36.3554C18.001 36.3554 18.0144 36.3753 18.0144 36.3887V36.7793C18.0144 36.7926 18.0099 36.8037 18.001 36.8126C17.9921 36.8215 17.9809 36.8259 17.9675 36.8259H17.2494C17.2361 36.8259 17.2294 36.8326 17.2294 36.8459V39.0877C17.2294 39.101 17.2249 39.1121 17.216 39.121C17.2071 39.1299 17.1959 39.1343 17.1825 39.1343H16.712C16.6986 39.1343 16.6875 39.1299 16.6786 39.121C16.6696 39.1121 16.6652 39.101 16.6652 39.0877V36.8459C16.6652 36.8326 16.6585 36.8259 16.6451 36.8259H15.9471C15.9337 36.8259 15.9226 36.8215 15.9136 36.8126C15.9047 36.8037 15.9003 36.7926 15.9003 36.7793V36.3887C15.9003 36.3753 15.9047 36.3642 15.9136 36.3554C15.9226 36.3465 15.9337 36.342 15.9471 36.342H17.9698C17.9831 36.342 17.9943 36.3465 18.0032 36.3554H18.001Z" fill="#2F6EB6"/>
<path d="M20.8443 37.7027C21.0985 37.8336 21.2256 38.0512 21.2256 38.353C21.2256 38.6105 21.1364 38.8058 20.9602 38.939C20.7841 39.07 20.5521 39.1366 20.2667 39.1366H19.2275C19.2141 39.1366 19.203 39.1321 19.194 39.1232C19.1851 39.1144 19.1807 39.1033 19.1807 39.0899V36.3887C19.1807 36.3753 19.1851 36.3642 19.194 36.3554C19.203 36.3465 19.2141 36.342 19.2275 36.342H20.2355C20.8688 36.342 21.1877 36.5973 21.1877 37.11C21.1877 37.3764 21.074 37.5673 20.8465 37.6805C20.8309 37.6894 20.8309 37.696 20.8465 37.7049L20.8443 37.7027ZM19.7449 36.8437V37.4674C19.7449 37.4807 19.7516 37.4874 19.7649 37.4874H20.2355C20.3604 37.4874 20.4585 37.4585 20.5276 37.3986C20.5967 37.3409 20.6324 37.261 20.6324 37.1589C20.6324 37.0568 20.5967 36.9724 20.5276 36.9125C20.4585 36.8526 20.3604 36.8237 20.2355 36.8237H19.7649C19.7516 36.8237 19.7449 36.8304 19.7449 36.8437ZM20.5566 38.5572C20.6257 38.4951 20.6614 38.4085 20.6614 38.2998C20.6614 38.191 20.6257 38.1044 20.5566 38.0423C20.4875 37.9801 20.3893 37.9491 20.2645 37.9491H19.7672C19.7538 37.9491 19.7471 37.9557 19.7471 37.969V38.6327C19.7471 38.646 19.7538 38.6527 19.7672 38.6527H20.2689C20.3916 38.6527 20.4875 38.6216 20.5588 38.5595L20.5566 38.5572Z" fill="#2F6EB6"/>
<path d="M23.2483 39.0988L23.1278 38.7082C23.1278 38.7082 23.1167 38.6926 23.1078 38.6926H22.1199C22.1199 38.6926 22.1042 38.6971 22.0998 38.7082L21.9838 39.0988C21.9749 39.1255 21.9593 39.1388 21.9325 39.1388H21.4219C21.4062 39.1388 21.3929 39.1343 21.3862 39.1255C21.3773 39.1166 21.3773 39.1033 21.3817 39.0833L22.2492 36.382C22.2581 36.3554 22.2737 36.342 22.3005 36.342H22.9316C22.9584 36.342 22.9762 36.3554 22.9829 36.382L23.8504 39.0833C23.8504 39.0833 23.8548 39.0944 23.8548 39.1033C23.8548 39.1277 23.8392 39.1388 23.8102 39.1388H23.2996C23.2728 39.1388 23.255 39.1255 23.2483 39.0988ZM22.5235 36.0934C22.5413 36.049 22.5614 36.0113 22.5792 35.9825C22.5971 35.9536 22.6216 35.9247 22.6506 35.8915C22.6796 35.8626 22.6997 35.836 22.7108 35.816C22.722 35.796 22.7264 35.7672 22.7264 35.7316C22.7264 35.705 22.7153 35.6828 22.693 35.6628C22.6707 35.6451 22.6439 35.634 22.6149 35.634C22.5793 35.634 22.5503 35.6429 22.5257 35.6584C22.5012 35.6739 22.47 35.7072 22.4343 35.7538C22.4209 35.7694 22.4075 35.7783 22.3942 35.7783C22.3808 35.7783 22.3696 35.7738 22.3629 35.7672L22.2269 35.6673C22.2135 35.6584 22.2068 35.6473 22.2068 35.6318C22.2068 35.6184 22.2091 35.6073 22.2158 35.6007C22.2737 35.5163 22.3362 35.4542 22.3986 35.4187C22.4611 35.3832 22.5391 35.3654 22.6328 35.3654C22.7532 35.3654 22.8491 35.3987 22.9227 35.4631C22.994 35.5274 23.0319 35.6184 23.0319 35.7316C23.0319 35.7938 23.0186 35.8448 22.994 35.8848C22.9695 35.927 22.9294 35.9714 22.8803 36.0224C22.8246 36.0846 22.7889 36.1267 22.7755 36.1512C22.7599 36.18 22.7398 36.1911 22.7153 36.1822L22.5592 36.1512C22.5213 36.1423 22.5101 36.1223 22.528 36.0912L22.5235 36.0934ZM22.2626 38.2554H22.9695C22.9851 38.2554 22.9918 38.2465 22.9851 38.2309L22.6238 37.0434C22.6238 37.0434 22.6172 37.0279 22.6127 37.0301C22.6082 37.0301 22.6038 37.0368 22.6015 37.0434L22.2492 38.2309C22.247 38.2465 22.2514 38.2554 22.2648 38.2554H22.2626Z" fill="#2F6EB6"/>
<path d="M25.8373 36.3554C25.8373 36.3554 25.8574 36.342 25.8708 36.342H26.3413C26.3547 36.342 26.3659 36.3465 26.3748 36.3554C26.3837 36.3642 26.3882 36.3753 26.3882 36.3887V39.0899C26.3882 39.1033 26.3837 39.1144 26.3748 39.1232C26.3659 39.1321 26.3547 39.1366 26.3413 39.1366H25.8886C25.8619 39.1366 25.844 39.1255 25.8329 39.1055L24.7937 37.3964C24.7937 37.3964 24.7825 37.3853 24.7781 37.3875C24.7736 37.3875 24.7691 37.3941 24.7691 37.4052L24.7781 39.0922C24.7781 39.1055 24.7736 39.1166 24.7647 39.1255C24.7558 39.1343 24.7446 39.1388 24.7312 39.1388H24.2607C24.2473 39.1388 24.2362 39.1343 24.2272 39.1255C24.2183 39.1166 24.2139 39.1055 24.2139 39.0922V36.3909C24.2139 36.3776 24.2183 36.3665 24.2272 36.3576C24.2362 36.3487 24.2473 36.3443 24.2607 36.3443H24.7134C24.7402 36.3443 24.758 36.3554 24.7691 36.3753L25.8039 38.0778C25.8039 38.0778 25.815 38.0889 25.8195 38.0867C25.824 38.0867 25.8284 38.08 25.8284 38.0689L25.824 36.3909C25.824 36.3776 25.8284 36.3665 25.8373 36.3576V36.3554Z" fill="#2F6EB6"/>
<path d="M28.4064 39.121C28.4064 39.121 28.393 39.101 28.393 39.0877V38.0778C28.393 38.0778 28.393 38.06 28.3885 38.0534L27.5612 36.3998C27.5612 36.3998 27.5522 36.382 27.5522 36.3753C27.5522 36.3531 27.5679 36.3443 27.5968 36.3443H28.1031C28.1298 36.3443 28.1477 36.3554 28.1588 36.3798L28.6606 37.443C28.6695 37.4585 28.6762 37.4585 28.6851 37.443L29.1869 36.3798C29.198 36.3554 29.2159 36.3443 29.2426 36.3443H29.7555C29.7734 36.3443 29.7868 36.3487 29.7934 36.3576C29.8001 36.3665 29.8001 36.382 29.7934 36.3998L28.9594 38.0534C28.9594 38.0534 28.9549 38.0667 28.9549 38.0778V39.0877C28.9549 39.101 28.9505 39.1121 28.9416 39.121C28.9326 39.1299 28.9215 39.1343 28.9081 39.1343H28.442C28.4287 39.1343 28.4175 39.1299 28.4086 39.121H28.4064Z" fill="#2F6EB6"/>
<path d="M32.4673 36.3554C32.4673 36.3554 32.4873 36.342 32.5007 36.342H32.9712C32.9846 36.342 32.9958 36.3465 33.0047 36.3554C33.0136 36.3642 33.0181 36.3753 33.0181 36.3887V39.0899C33.0181 39.1033 33.0136 39.1144 33.0047 39.1232C32.9958 39.1321 32.9846 39.1366 32.9712 39.1366H32.5007C32.4873 39.1366 32.4762 39.1321 32.4673 39.1232C32.4583 39.1144 32.4539 39.1033 32.4539 39.0899V37.9868C32.4539 37.9735 32.4472 37.9668 32.4338 37.9668H31.5462C31.5329 37.9668 31.5262 37.9735 31.5262 37.9868V39.0899C31.5262 39.1033 31.5217 39.1144 31.5128 39.1232C31.5039 39.1321 31.4927 39.1366 31.4793 39.1366H31.0088C30.9954 39.1366 30.9843 39.1321 30.9754 39.1232C30.9664 39.1144 30.962 39.1033 30.962 39.0899V36.3887C30.962 36.3753 30.9664 36.3642 30.9754 36.3554C30.9843 36.3465 30.9954 36.342 31.0088 36.342H31.4793C31.4927 36.342 31.5039 36.3465 31.5128 36.3554C31.5217 36.3642 31.5262 36.3753 31.5262 36.3887V37.463C31.5262 37.4763 31.5329 37.4829 31.5462 37.4829H32.4338C32.4472 37.4829 32.4539 37.4763 32.4539 37.463V36.3887C32.4539 36.3753 32.4583 36.3642 32.4673 36.3554Z" fill="#2F6EB6"/>
<path d="M33.9279 39.0544C33.7696 38.9701 33.6447 38.8502 33.5555 38.6971C33.4663 38.5439 33.424 38.3663 33.424 38.1688V37.3142C33.424 37.1167 33.4686 36.9436 33.5555 36.7904C33.6447 36.6395 33.7674 36.5218 33.9279 36.4375C34.0863 36.3531 34.2714 36.311 34.4788 36.311C34.6862 36.311 34.8757 36.3531 35.034 36.4375C35.1924 36.5218 35.3173 36.6395 35.4065 36.7904C35.4957 36.9413 35.538 37.1167 35.538 37.3142V38.1688C35.538 38.3686 35.4934 38.5461 35.4065 38.6993C35.3173 38.8547 35.1946 38.9723 35.034 39.0567C34.8735 39.141 34.6884 39.1832 34.4788 39.1832C34.2691 39.1832 34.0863 39.141 33.9279 39.0544ZM34.8378 38.5595C34.9292 38.4662 34.9738 38.3419 34.9738 38.1888V37.3098C34.9738 37.1544 34.9292 37.0301 34.84 36.9369C34.7508 36.8415 34.6304 36.7948 34.481 36.7948C34.3316 36.7948 34.2156 36.8415 34.1264 36.9369C34.0372 37.0323 33.9926 37.1566 33.9926 37.3098V38.1888C33.9926 38.3442 34.0372 38.4662 34.1264 38.5595C34.2156 38.6527 34.3338 38.6993 34.481 38.6993C34.6282 38.6993 34.7464 38.6527 34.8378 38.5595ZM34.2669 39.9157C34.2112 39.8579 34.1822 39.7869 34.1822 39.7026C34.1822 39.6116 34.2112 39.5383 34.2669 39.485C34.3227 39.4318 34.3963 39.4029 34.4832 39.4029C34.5702 39.4029 34.6438 39.4296 34.6995 39.485C34.7553 39.5405 34.7843 39.6116 34.7843 39.7026C34.7843 39.7869 34.7553 39.8579 34.6973 39.9157C34.6393 39.9734 34.568 40.0022 34.4832 40.0022C34.3985 40.0022 34.3227 39.9734 34.2669 39.9157Z" fill="#2F6EB6"/>
<path d="M36.4122 39.0478C36.2539 38.9656 36.1335 38.8524 36.0465 38.7059C35.9595 38.5595 35.9172 38.3908 35.9172 38.1977V37.2743C35.9172 37.0834 35.9595 36.9147 36.0465 36.766C36.1335 36.6173 36.2539 36.5063 36.4122 36.4264C36.5706 36.3465 36.7534 36.3065 36.9631 36.3065C37.1727 36.3065 37.3511 36.3443 37.5072 36.4197C37.6633 36.4952 37.786 36.604 37.8729 36.7438C37.9599 36.8836 38.0045 37.0457 38.0045 37.2299C38.0045 37.2543 37.9889 37.2676 37.9554 37.2743L37.4849 37.3031H37.476C37.4492 37.3031 37.4358 37.2876 37.4358 37.2587C37.4358 37.1167 37.3912 37.0035 37.3065 36.9191C37.2195 36.8348 37.1058 36.7904 36.9631 36.7904C36.8203 36.7904 36.7022 36.8326 36.6152 36.9191C36.5282 37.0057 36.4858 37.1167 36.4858 37.2587V38.2221C36.4858 38.3597 36.5304 38.4729 36.6152 38.5572C36.7022 38.6416 36.8181 38.686 36.9631 38.686C37.108 38.686 37.2195 38.6438 37.3065 38.5572C37.3935 38.4729 37.4358 38.3597 37.4358 38.2221C37.4358 38.1932 37.4514 38.1777 37.4849 38.1777L37.9554 38.1977C37.9688 38.1977 37.98 38.2021 37.9889 38.2087C37.9978 38.2176 38.0023 38.2265 38.0023 38.2376C38.0023 38.4218 37.9577 38.5839 37.8707 38.7259C37.7837 38.868 37.6611 38.9767 37.505 39.0544C37.3489 39.1321 37.1682 39.1699 36.9608 39.1699C36.7534 39.1699 36.5684 39.1299 36.41 39.0478H36.4122Z" fill="#2F6EB6"/>
<path d="M35.799 0.66589C36.4279 0.66589 36.943 1.15865 36.972 1.77793V1.78458C36.9608 1.89113 36.9497 2.00433 36.9363 2.11753C36.9363 2.11975 36.9363 2.12197 36.9363 2.12419C36.3275 8.29033 34.8066 23.7678 34.626 26.6755C34.4074 30.3202 30.4558 30.753 25.6233 31.0305C22.8224 31.1992 21.0049 32.158 19.9746 32.9349C19.6735 33.1613 19.3145 33.2745 18.9599 33.2745C18.6053 33.2745 18.2463 33.1613 17.9452 32.9349C16.9127 32.158 15.0975 31.1992 12.2965 31.0305C7.46402 30.753 3.51237 30.3202 3.29383 26.6755C3.11319 23.7678 1.59007 8.25703 0.981269 2.10421C0.970119 1.99767 0.958968 1.89335 0.950048 1.79124C0.972349 1.16531 1.48749 0.66589 2.12082 0.66589C2.23902 0.66589 2.35275 0.683647 2.45979 0.716941C2.46425 0.716941 2.46648 0.716941 2.46871 0.719161C2.52223 0.743577 2.57798 0.763554 2.63596 0.78575C3.92939 1.27851 6.03902 1.73797 9.41754 1.73797C9.64054 1.73797 9.87024 1.73797 10.1044 1.73131C10.2583 1.72909 10.4077 1.72687 10.5571 1.72687C15.9716 1.72687 17.9497 3.56029 18.6299 4.57466C18.786 4.80772 19.1361 4.80772 19.2922 4.57466C19.9724 3.56029 21.9504 1.72687 27.365 1.72687C27.5121 1.72687 27.6638 1.72687 27.8177 1.73131C28.0518 1.73575 28.2815 1.73797 28.5045 1.73797C31.883 1.73797 33.9927 1.28073 35.2861 0.78575C35.3441 0.763554 35.3998 0.743577 35.4533 0.719161C35.4556 0.716941 35.4578 0.716941 35.4623 0.716941C35.5693 0.683647 35.683 0.66589 35.8012 0.66589M35.799 0C35.6206 0 35.4444 0.0266356 35.2749 0.0776871C35.2393 0.0865657 35.2058 0.0998835 35.1746 0.115421C35.1456 0.128739 35.1144 0.139837 35.0854 0.150935L35.0475 0.166472C33.9637 0.579324 31.9477 1.0743 28.5067 1.0743C28.286 1.0743 28.063 1.0743 27.831 1.06764C27.6749 1.06542 27.5188 1.0632 27.3672 1.0632C22.6373 1.0632 20.3425 2.43494 19.2543 3.57361C19.0959 3.74008 18.8328 3.74008 18.6745 3.57361C17.5862 2.43494 15.2915 1.0632 10.5616 1.0632C10.4099 1.0632 10.2538 1.0632 10.0977 1.06764C9.86801 1.07208 9.64277 1.0743 9.422 1.0743C5.98103 1.0743 3.96507 0.581544 2.87904 0.166472L2.84113 0.153155C2.80991 0.142056 2.78092 0.130958 2.75193 0.117641C2.71848 0.104323 2.68503 0.0910049 2.65157 0.0821264C2.48209 0.0310749 2.30592 0.00443927 2.12751 0.00443927C1.13291 0 0.330095 0.763554 0.283264 1.74463L0.287724 1.87781C0.294414 1.96437 0.305565 2.05094 0.314485 2.13973L0.318945 2.17302C0.814015 7.17385 2.44418 23.7345 2.62927 26.7155C2.74747 28.6688 3.79559 29.985 5.83608 30.7397C7.57106 31.3812 9.86578 31.5565 12.2631 31.6941C14.8945 31.8517 16.5894 32.744 17.5461 33.4654C17.9586 33.7761 18.4492 33.9404 18.9644 33.9404C19.4795 33.9404 19.9679 33.7761 20.3827 33.4676C21.3394 32.7462 23.032 31.8539 25.6701 31.6964C28.0652 31.5587 30.3599 31.3812 32.0949 30.7419C34.1354 29.9872 35.1835 28.671 35.3017 26.7177C35.4266 24.72 36.245 16.0102 37.6098 2.193C37.6098 2.193 37.6098 2.1819 37.6098 2.17746C37.6187 2.09533 37.6276 2.01321 37.6366 1.9333L37.6455 1.85561C37.6477 1.83342 37.6499 1.809 37.6499 1.7868C37.6499 1.77571 37.6499 1.76017 37.6499 1.74907C37.6031 0.770213 36.7958 0.00221963 35.8079 0.00221963L35.799 0Z" fill="#2F6EB6"/>
<path d="M9.88588 24.2584C11.9888 24.2695 13.9312 24.6668 15.7241 25.6501C16.8927 26.2915 17.8427 27.1994 18.7236 28.1827C18.9555 28.4401 18.9421 28.4468 19.1629 28.2004C20.0549 27.2038 21.0294 26.296 22.2069 25.6456C24.089 24.6068 26.1273 24.2073 28.2659 24.2717C28.8591 24.2894 29.4501 24.3471 30.041 24.4093C30.4001 24.447 30.6632 24.629 30.8505 24.9287C31.0736 25.2861 31.2899 25.6479 31.5062 26.0097C31.5575 26.094 31.6511 26.1828 31.5619 26.2938C31.4772 26.3981 31.3657 26.3515 31.2676 26.3248C30.4581 26.1029 29.6374 25.9586 28.8034 25.8698C26.7629 25.6545 24.7848 25.9098 22.8625 26.6245C21.5401 27.1172 20.2824 27.7343 19.116 28.5289C18.9555 28.6377 18.864 28.5556 18.7525 28.4823C17.3008 27.5412 15.7598 26.7865 14.0895 26.3093C11.6454 25.6101 9.19679 25.6323 6.7482 26.3049C6.68576 26.3226 6.62332 26.3448 6.56088 26.3559C6.36463 26.3892 6.25759 26.2782 6.35125 26.1095C6.62555 25.6234 6.89538 25.1329 7.24327 24.6934C7.37484 24.5247 7.56663 24.4515 7.77402 24.4226C8.49879 24.3227 9.22801 24.2628 9.89034 24.2584H9.88588Z" fill="#2F6CB5"/>
<path d="M18.9755 27.4191C19.3568 26.4491 19.8943 25.6323 20.5655 24.9065C21.8746 23.4882 23.5092 22.6358 25.3757 22.1985C26.4172 21.9544 27.4764 21.8545 28.5469 21.9344C28.8725 21.9588 29.1222 22.1009 29.2939 22.3739C29.5058 22.7091 29.711 23.0509 29.9139 23.3905C29.9629 23.4726 30.0276 23.5592 29.954 23.6591C29.8827 23.7589 29.7823 23.7234 29.6864 23.7101C27.0973 23.3239 24.6242 23.7146 22.2938 24.8821C21.0205 25.5213 19.9746 26.458 19.1584 27.6322C18.9666 27.9074 18.9688 27.9074 18.7793 27.6433C17.9185 26.4447 16.8436 25.4858 15.5212 24.8133C14.4552 24.2695 13.3112 23.9632 12.1404 23.7501C10.8247 23.5103 9.50673 23.4904 8.18654 23.7168C8.1018 23.7323 8.02598 23.7368 7.96353 23.6657C7.90109 23.5903 7.92339 23.5148 7.96353 23.4393C8.17985 23.0398 8.41623 22.6513 8.67715 22.2807C8.89792 21.9677 9.23912 21.9189 9.58924 21.91C10.9852 21.87 12.3456 22.052 13.6635 22.5248C15.8244 23.2973 17.5059 24.6357 18.6053 26.66C18.7324 26.8931 18.8372 27.1372 18.9755 27.4213V27.4191Z" fill="#306DB5"/>
<path d="M10.6597 26.4514C12.6623 26.4935 14.4686 26.6889 16.1835 27.3836C17.1291 27.7654 18.0144 28.2604 18.8239 28.8819C18.8952 28.9374 18.9465 29.0306 19.067 28.9307C20.037 28.1316 21.1431 27.5789 22.3295 27.1727C23.4535 26.7887 24.6131 26.6045 25.7928 26.5157C27.5857 26.3826 29.3675 26.4691 31.136 26.8043C31.2408 26.8243 31.3411 26.8553 31.446 26.8687C31.97 26.9441 32.3402 27.2238 32.5766 27.6921C32.6792 27.8941 32.8063 28.0828 32.9156 28.2826C32.9624 28.3669 33.0181 28.4557 32.9379 28.5511C32.862 28.6399 32.7773 28.5933 32.6925 28.5622C30.2663 27.6988 27.7575 27.4324 25.2018 27.5456C23.5806 27.6167 21.9816 27.8497 20.4407 28.3935C19.9857 28.5534 19.5553 28.762 19.2008 29.1016C19.0625 29.2348 18.8952 29.2481 18.7592 29.126C17.9876 28.4357 17.022 28.196 16.0519 27.9829C13.0325 27.3148 10.013 27.3947 7.00018 28.0317C6.41144 28.156 5.83832 28.3425 5.27635 28.5578C5.18046 28.5955 5.07342 28.6621 4.98421 28.5578C4.89947 28.4601 4.95522 28.358 5.01097 28.267C5.19161 27.9696 5.37224 27.6699 5.5618 27.3792C5.71344 27.1439 5.93644 27.0085 6.21074 26.9397C7.72717 26.5557 9.27259 26.4469 10.6575 26.4536L10.6597 26.4514Z" fill="#2D6CB5"/>
<path d="M20.2756 8.56334C20.0526 9.30026 19.3479 9.70201 18.6477 9.51335C18.2619 9.40902 18.0188 9.11825 17.9876 8.72759C18.0389 8.31918 18.2842 8.10832 18.6767 8.03063C19.0335 7.9596 19.2654 7.74208 19.3658 7.3936C19.4505 7.09838 19.5174 6.80095 19.4974 6.49242C19.5643 6.3082 19.6668 6.24605 19.8029 6.42806C20.2801 7.06953 20.5165 7.77093 20.2756 8.56556V8.56334Z" fill="#E82229"/>
<path d="M18.7637 7.86638C18.6388 7.91743 18.5496 7.93297 18.5318 7.75762C18.5117 7.57783 18.4091 7.44021 18.2664 7.33811C18.0166 7.16276 17.8561 6.93191 17.7981 6.63226C17.7691 6.08845 18.0679 5.71334 18.456 5.39593C18.6946 5.2006 18.8395 5.25387 18.9243 5.54686C19.0224 5.88203 19.2052 6.17724 19.3591 6.48799C19.368 6.5346 19.3792 6.58343 19.3881 6.63004C19.484 7.10283 19.1852 7.69325 18.7659 7.86638H18.7637Z" fill="#E52229"/>
<path d="M18.2864 7.97958C18.0277 8.21264 17.8872 8.479 17.8939 8.82526C17.8939 8.83858 17.8939 8.88297 17.8739 8.89629C17.5527 8.63659 17.2762 8.29699 17.1781 7.88858C17.08 7.48016 17.1781 7.10948 17.3899 6.761C17.4435 6.67444 17.5104 6.60563 17.6263 6.64336C17.7022 6.96299 17.8672 7.21159 18.1415 7.4047C18.3801 7.57339 18.447 7.83752 18.2842 7.9818L18.2864 7.97958Z" fill="#E82127"/>
<path d="M18.4269 19.8524C18.4002 18.039 18.3734 16.2277 18.3444 14.4143C18.3444 14.3033 18.34 14.2412 18.4849 14.2967C18.7681 14.4032 19.0603 14.3965 19.3457 14.3055C19.4885 14.2589 19.5264 14.2833 19.5241 14.4365C19.4951 16.6051 19.4706 18.7736 19.4461 20.9422C19.4282 22.3495 19.4104 23.7589 19.3948 25.1662C19.3926 25.366 19.3792 25.5591 19.1606 25.6567C18.8172 25.8099 18.5095 25.6212 18.505 25.2417C18.4894 24.2051 18.476 23.1707 18.4693 22.1342C18.4626 21.3728 18.4693 20.6137 18.4693 19.8524C18.4559 19.8524 18.4448 19.8524 18.4314 19.8524H18.4269Z" fill="#2E6AB2"/>
<path d="M18.0189 10.7652C18.0189 10.5299 18.0412 10.2969 18.0635 10.0638C18.0768 9.91732 18.1081 9.89068 18.2508 9.94174C18.6946 10.0949 19.1495 10.0927 19.5933 9.96171C19.7605 9.91288 19.794 9.94839 19.823 10.1038C19.9523 10.7852 19.8609 11.46 19.7739 12.1347C19.7115 12.6164 19.6267 13.0936 19.5687 13.5775C19.5442 13.7728 19.4528 13.8705 19.2677 13.8927C19.1562 13.906 19.0425 13.9238 18.9287 13.926C18.427 13.926 18.3378 13.8594 18.2842 13.3777C18.1883 12.5099 18.0456 11.6464 18.0189 10.7697V10.7652Z" fill="#2F6BB4"/>
<path d="M18.9421 9.95061C18.7057 9.95949 18.4738 9.93508 18.2485 9.85295C18.1504 9.81743 18.0478 9.76194 18.088 9.65096C18.1326 9.52444 18.2285 9.63986 18.2887 9.6554C18.7369 9.7686 19.1829 9.79524 19.6289 9.65096C19.678 9.63543 19.7494 9.5533 19.7895 9.6554C19.8229 9.73531 19.7783 9.79524 19.7025 9.83075C19.4594 9.94395 19.203 9.95727 18.9421 9.95505V9.95061Z" fill="#306FB3"/>
<path d="M19.5242 13.9282C19.5844 14.0547 19.5331 14.1235 19.4216 14.1546C19.096 14.25 18.7704 14.2611 18.447 14.1502C18.3668 14.1235 18.282 14.0836 18.3199 13.9837C18.3668 13.8572 18.4426 13.9726 18.4916 13.9881C18.8462 14.1058 19.1897 14.0814 19.5264 13.9282H19.5242Z" fill="#356BB2"/>
<path d="M17.7022 14.1879C16.8325 15.1889 15.7308 15.4043 14.9615 15.4065C14.0694 15.4109 13.338 15.1224 13.2019 14.967C13.1194 14.8738 13.115 14.8294 13.1127 14.8294C13.1194 14.8183 13.1484 14.8005 13.1774 14.7894C13.2577 14.7939 13.338 14.7961 13.4205 14.7961C14.0962 14.7961 14.8455 14.6629 15.568 14.31C15.6795 14.2567 15.7241 14.1235 15.6706 14.0125C15.6171 13.9016 15.4833 13.8572 15.3718 13.9104C14.172 14.4964 12.7782 14.4254 11.9308 14.0924C11.5406 13.9393 11.3577 13.7684 11.3176 13.6663C11.2685 13.5398 11.264 13.4421 11.3019 13.3755C11.3399 13.3089 11.4224 13.2712 11.4804 13.2512C11.8639 13.3622 12.2787 13.4288 12.7113 13.4288C13.1038 13.4288 13.5119 13.3755 13.9267 13.2534C14.0449 13.2179 14.1118 13.0958 14.0761 12.9782C14.0404 12.8606 13.9156 12.794 13.7996 12.8295C11.6275 13.471 9.73868 11.9616 9.53352 11.3645C9.44432 11.1026 9.48669 11.0027 9.50899 10.9716C9.53352 10.9361 9.57812 10.9228 9.6138 10.9162C10.2538 11.2558 11.0656 11.5288 12.0802 11.6531C12.0892 11.6531 12.0981 11.6531 12.107 11.6531C12.2185 11.6531 12.3144 11.5709 12.3278 11.4577C12.3434 11.3357 12.2564 11.2247 12.1338 11.2091C9.12542 10.8385 8.0996 9.11825 8.06615 8.53449C8.05946 8.40353 8.08622 8.30809 8.14643 8.23928C8.20887 8.17269 8.29807 8.14161 8.36274 8.1283C8.8199 8.55668 9.46439 8.98063 10.3809 9.28916C10.4969 9.32912 10.624 9.26697 10.6642 9.14933C10.7043 9.03391 10.6419 8.90739 10.5237 8.86743C8.83328 8.29921 7.98587 7.22047 7.75617 6.3992C7.6469 6.01077 7.69819 5.76439 7.7584 5.69336C7.92789 5.49359 8.13974 5.61345 8.73962 6.09955C8.92695 6.25049 9.11873 6.40808 9.33059 6.55236C10.1334 7.09839 12.5686 8.46568 13.3848 8.80306C14.2233 9.14711 15.461 9.52444 16.2482 9.71755C16.7745 9.84629 17.1714 10.1393 17.3922 10.5588C17.4591 10.6875 17.3409 10.8584 17.3387 10.8651C17.2673 10.9628 17.2874 11.1004 17.3855 11.1736C17.4257 11.2025 17.4725 11.218 17.5193 11.218C17.5884 11.218 17.6554 11.1869 17.6977 11.1292C17.807 10.9827 17.9475 10.6565 17.7892 10.3546C17.5059 9.81744 17.0109 9.44898 16.3552 9.28694C15.6037 9.10271 14.366 8.72538 13.5565 8.39243C12.776 8.07059 10.3519 6.70773 9.58258 6.18612C9.38634 6.05294 9.20124 5.902 9.02061 5.75551C8.49209 5.32712 7.89443 4.84102 7.4172 5.40481C7.22765 5.62899 7.1942 6.04406 7.32577 6.51684C7.38821 6.74325 7.56885 7.24044 8.02601 7.77981C7.95465 7.81755 7.88328 7.86638 7.82084 7.93519C7.71826 8.04395 7.60007 8.2415 7.61791 8.5589C7.6469 9.04944 8.10183 9.94395 9.18563 10.6565C9.17225 10.6698 9.1611 10.6809 9.14772 10.6964C9.005 10.8873 8.98939 11.1581 9.10535 11.4977C9.26814 11.9749 9.97284 12.6563 10.963 13.067C10.9429 13.0914 10.9251 13.1158 10.9072 13.1447C10.8314 13.2734 10.7667 13.4954 10.8916 13.8194C10.992 14.0791 11.2997 14.3189 11.7569 14.4986C12.0111 14.5985 12.3211 14.6807 12.669 14.7317C12.6355 14.896 12.6935 15.0713 12.8541 15.2533C13.1061 15.5396 13.9713 15.8437 14.9325 15.8437H14.9503C15.8133 15.8393 17.0488 15.5996 18.0278 14.4698C18.108 14.3766 18.0969 14.2367 18.0055 14.1568C17.914 14.0769 17.7713 14.088 17.691 14.179L17.7022 14.1879Z" fill="#2F6EB6"/>
<path d="M30.487 5.41369C30.0076 4.8499 29.4099 5.336 28.8836 5.76439C28.703 5.91088 28.5179 6.06182 28.3217 6.195C27.5523 6.71883 25.1282 8.08169 24.3477 8.40131C23.5382 8.73426 22.3005 9.10938 21.549 9.29582C20.8956 9.45564 20.4005 9.82632 20.1151 10.3635C19.9545 10.6676 20.0973 10.9938 20.2065 11.1381C20.2511 11.1958 20.318 11.2269 20.3849 11.2269C20.4318 11.2269 20.4786 11.2136 20.5187 11.1825C20.6169 11.1093 20.6369 10.9694 20.5633 10.8718C20.5633 10.8718 20.4429 10.6964 20.5098 10.5677C20.7328 10.1459 21.1275 9.85517 21.6538 9.72643C22.441 9.53333 23.6787 9.15599 24.5172 8.81194C25.3356 8.47456 27.7708 7.10727 28.5714 6.56124C28.7833 6.41696 28.9773 6.25937 29.1624 6.10843C29.7623 5.62233 29.9741 5.50247 30.1436 5.70224C30.2038 5.77327 30.2551 6.01965 30.1458 6.40808C29.9162 7.22935 29.0687 8.31031 27.3784 8.87631C27.2624 8.91627 27.2 9.04057 27.2379 9.15821C27.278 9.27363 27.4029 9.338 27.5211 9.29804C28.4376 8.98952 29.0843 8.56557 29.5393 8.13718C29.6039 8.15049 29.6931 8.18157 29.7556 8.24816C29.818 8.31475 29.8448 8.41241 29.8359 8.54337C29.8024 9.12713 28.7766 10.8473 25.7683 11.218C25.6456 11.2336 25.5586 11.3445 25.5743 11.4666C25.5876 11.5798 25.6835 11.662 25.795 11.662C25.8039 11.662 25.8129 11.662 25.8218 11.662C26.8365 11.5377 27.6482 11.2646 28.2882 10.925C28.3217 10.9317 28.3663 10.945 28.393 10.9805C28.4153 11.0116 28.4577 11.1115 28.3685 11.3734C28.1656 11.9705 26.2745 13.4776 24.1024 12.8384C23.9842 12.8028 23.8593 12.8694 23.8259 12.9871C23.7902 13.1047 23.8593 13.229 23.9753 13.2623C24.3923 13.3844 24.8004 13.4377 25.1907 13.4377C25.6255 13.4377 26.0381 13.3711 26.4217 13.2601C26.4797 13.2801 26.5622 13.3178 26.6001 13.3844C26.638 13.451 26.6313 13.5486 26.5845 13.6752C26.5466 13.7773 26.3615 13.9482 25.9712 14.1013C25.1238 14.4321 23.7322 14.5053 22.5302 13.9193C22.4187 13.8638 22.2849 13.9104 22.2314 14.0214C22.1779 14.1324 22.2225 14.2634 22.334 14.3189C23.0565 14.6718 23.8058 14.805 24.4815 14.805C24.564 14.805 24.6443 14.805 24.7246 14.7983C24.7536 14.8094 24.7826 14.8271 24.7893 14.8338C24.7893 14.8338 24.7893 14.8804 24.7023 14.9781C24.5663 15.1335 23.8482 15.4176 22.9584 15.4176H22.9428C22.1734 15.4154 21.0718 15.2 20.2021 14.199C20.1218 14.1058 19.9813 14.0947 19.8876 14.1768C19.794 14.2567 19.7851 14.3965 19.8653 14.4898C20.8443 15.6173 22.0798 15.8593 22.9428 15.8637H22.9606C23.924 15.8637 24.787 15.5574 25.039 15.2733C25.1996 15.0913 25.2576 14.9159 25.2241 14.7517C25.5698 14.7006 25.882 14.6185 26.1362 14.5186C26.5956 14.3388 26.9034 14.0969 27.0015 13.8394C27.1264 13.5153 27.0617 13.2934 26.9859 13.1646C26.9703 13.1358 26.9502 13.1114 26.9301 13.087C27.9203 12.6763 28.625 11.9949 28.7878 11.5177C28.9037 11.1759 28.8903 10.9073 28.7454 10.7164C28.7342 10.7009 28.7208 10.6898 28.7075 10.6764C29.7913 9.96171 30.2484 9.0672 30.2752 8.57888C30.293 8.26148 30.1748 8.06393 30.0723 7.95517C30.0076 7.88636 29.9385 7.83753 29.8671 7.79979C30.3243 7.26042 30.5049 6.76322 30.5673 6.53682C30.6989 6.06404 30.6655 5.64897 30.4759 5.42479L30.487 5.41369Z" fill="#2F6EB6"/>
</g>
<defs>
<clipPath id="clip0_11295_32836">
<rect width="38" height="40" fill="white"/>
</clipPath>
</defs>
</svg>
