<svg width="70" height="70" viewBox="0 0 70 70" fill="none" xmlns="http://www.w3.org/2000/svg">
<g clip-path="url(#clip0_8036_132014)">
<path fill-rule="evenodd" clip-rule="evenodd" d="M32.8392 23.366C32.9322 22.8802 33.1889 22.4424 33.5654 22.1277C33.9419 21.813 34.4146 21.6411 34.9024 21.6414C35.4496 21.6414 35.9743 21.8619 36.3612 22.2544C36.7481 22.6469 36.9655 23.1793 36.9655 23.7343V36.1499H44.3928C44.499 36.1395 44.6062 36.1515 44.7077 36.185C44.8091 36.2186 44.9027 36.273 44.9824 36.3449C45.0622 36.4168 45.1265 36.5046 45.1713 36.6029C45.2161 36.7011 45.2404 36.8077 45.2428 36.9159C45.24 37.0235 45.2152 37.1293 45.1701 37.2267C45.125 37.324 45.0604 37.4108 44.9806 37.4816C44.9007 37.5524 44.8072 37.6057 44.7061 37.638C44.6049 37.6703 44.4982 37.681 44.3928 37.6694H36.9655V56.9248C36.9655 63.3 42.1522 61.7805 42.1522 61.7805C42.1522 61.7805 52.6206 51.8681 53.516 35.7899C54.4114 19.7117 37.4813 0 37.4813 0C37.4813 0 37.3823 4.65059 36.6849 7.17891C35.9876 9.70722 34.6796 13.956 34.6796 13.956L30.8793 9.70723C31.0814 17.3926 29.5836 21.34 24.9003 26.4971C22.4098 29.3397 20.2983 32.5021 18.6201 35.9029C29.3856 34.8104 32.1419 26.9199 32.8392 23.366ZM50.8872 3.76785C56.8837 7.37513 61.5462 12.8808 64.1577 19.4382C66.7693 25.9956 67.1852 33.2417 65.3417 40.0623C63.4981 46.8829 59.4971 52.9004 53.9539 57.1894C48.4107 61.4784 41.6322 63.8015 34.6607 63.8015C27.6891 63.8015 20.9106 61.4784 15.3674 57.1894C9.82417 52.9004 5.82318 46.8829 3.97963 40.0623C2.13609 33.2417 2.55206 25.9956 5.16359 19.4382C7.77511 12.8808 12.4376 7.37513 18.4341 3.76785C11.5964 7.44284 6.16761 13.3333 3.01237 20.501C-0.142868 27.6688 -0.843051 35.7014 1.02335 43.3196C2.88975 50.9378 7.21539 57.7034 13.3113 62.5386C19.4071 67.3738 26.9226 70.0006 34.6607 70.0006C42.3987 70.0006 49.9142 67.3738 56.01 62.5386C62.1059 57.7034 66.4316 50.9378 68.298 43.3196C70.1644 35.7014 69.4642 27.6688 66.3089 20.501C63.1537 13.3333 57.7249 7.44284 50.8872 3.76785ZM22.1031 37.7248V53.8031C22.1031 53.8031 15.6083 49.052 17.9149 37.7248H22.1031Z" fill="#ED1C24"/>
</g>
<defs>
<clipPath id="clip0_8036_132014">
<rect width="70" height="70" fill="white"/>
</clipPath>
</defs>
</svg>
