<svg width="70" height="70" viewBox="0 0 70 70" fill="none" xmlns="http://www.w3.org/2000/svg">
<g clip-path="url(#clip0_8036_132011)">
<path fill-rule="evenodd" clip-rule="evenodd" d="M11.0564 55.2987H18.2132V48.1264H11.0564V55.2987ZM61.9147 21.0516V22.6041H37.2618V34.6045H35.7093V22.6817H26.9224V21.0516L36.4855 13.1652L61.7905 21.0516H61.9147ZM29.6703 21.0516H35.7093V15.8975L29.7013 21.0516H29.6703ZM37.2618 15.1212V21.0516H56.3259L37.2618 15.1212ZM54.7579 37.5386H61.9147V30.2887H54.7579V37.5386ZM19.8122 37.5386H26.9535V30.2887H19.8122V37.5386ZM11.0564 37.5386H18.2132V30.2887H11.0564V37.5386ZM11.0564 46.4187H18.2132V39.1687H11.0564V46.4187ZM19.8122 46.4187H26.9535V39.1687H19.8122V46.4187ZM28.568 46.4187H35.7093V39.1687H28.568V46.4187ZM37.3083 46.4187H44.4496V39.1687H37.2618V46.4187H37.3083ZM54.7579 55.2987H61.9147V48.1264H54.7579V55.3763V55.2987ZM46.0176 55.2987H53.1589V48.1264H46.0176V55.2987ZM37.3083 55.2987H44.4496V48.1264H37.2618V55.3763L37.3083 55.2987ZM28.568 55.2987H35.7093V48.1264H28.568V55.2987ZM19.8122 55.2987H26.9535V48.1264H19.8122V55.3763V55.2987Z" fill="#E70000"/>
<path fill-rule="evenodd" clip-rule="evenodd" d="M35.3182 70C33.921 67.811 31.0335 64.7217 27.6336 64.613H0V0H28.2856C30.9465 0.202173 33.4444 1.36014 35.3182 3.26015C37.1985 1.36026 39.7011 0.202648 42.3664 0H70.6365V64.613H43.0184C39.603 64.7217 36.731 67.811 35.2561 70H35.3182ZM35.3182 9.78044C33.5795 8.36771 31.1577 5.71302 28.1304 5.71302H5.74407V58.9931H27.9441C29.3557 58.9275 30.7625 59.202 32.0458 59.7937C33.3291 60.3854 34.4515 61.2769 35.3182 62.393C36.1859 61.2778 37.3084 60.3871 38.5915 59.7955C39.8746 59.2039 41.2809 58.9288 42.6924 58.9931H64.908V5.71302H42.5216C39.4943 5.71302 37.0725 8.36771 35.3182 9.79596V9.78044Z" fill="#E70000"/>
</g>
<defs>
<clipPath id="clip0_8036_132011">
<rect width="70" height="70" fill="white"/>
</clipPath>
</defs>
</svg>
