<svg width="115" height="29" viewBox="0 0 115 29" fill="none" xmlns="http://www.w3.org/2000/svg">
<g clip-path="url(#clip0_8912_159036)">
<path d="M42.8582 25.9636C41.8505 26.9121 40.7242 27.6235 39.4793 28.0977C38.2345 28.6312 36.8711 28.8683 35.5076 28.8683C33.9664 28.8683 32.4844 28.5719 31.0617 28.0384C29.6983 27.4456 28.4534 26.675 27.3864 25.6672C26.3194 24.6595 25.4895 23.4739 24.8967 22.1105C24.3039 20.7471 23.9482 19.2651 23.9482 17.6646C23.9482 16.6568 24.0668 15.7084 24.3039 14.7599C24.541 13.8115 24.8967 12.9223 25.3709 12.0924C25.8452 11.2625 26.3787 10.4918 27.0307 9.83976C27.6828 9.12842 28.3942 8.53563 29.1648 8.06139C29.9354 7.58716 30.8246 7.17221 31.7731 6.93509C32.7215 6.6387 33.67 6.52014 34.737 6.52014C35.6855 6.52014 36.5747 6.6387 37.4638 6.87582C38.353 7.11293 39.1829 7.4686 39.9536 7.94284C40.7242 8.41707 41.4355 8.95058 42.0876 9.60265C42.7397 10.2547 43.2732 10.9661 43.7474 11.6774C44.2216 12.3888 44.5773 13.2187 44.8144 14.1078C45.0516 14.997 45.1701 15.8269 45.1701 16.7754C45.1701 17.3682 45.1701 17.8424 45.1701 18.1981C45.1701 18.5538 45.0516 18.8502 44.933 19.0873C44.7552 19.3244 44.518 19.443 44.1624 19.5615C43.8067 19.6208 43.2732 19.6801 42.5026 19.6801H30.2911C30.4096 20.3914 30.6468 21.0435 31.0024 21.5177C31.3581 21.992 31.7731 22.4069 32.188 22.7033C32.603 22.9997 33.1365 23.1775 33.6107 23.3554C34.1442 23.4739 34.6185 23.5332 35.0927 23.5332C35.5076 23.5332 35.9226 23.4739 36.3375 23.4146C36.7525 23.3554 37.1674 23.2368 37.5824 23.059C37.9974 22.9404 38.353 22.7626 38.7087 22.5847C39.0644 22.4069 39.3015 22.2291 39.5386 21.992C39.7164 21.8734 39.8943 21.7548 40.0128 21.6363C40.1314 21.577 40.3092 21.5177 40.4278 21.5177C40.6056 21.5177 40.7242 21.577 40.902 21.6956C41.0799 21.8141 41.2577 21.9327 41.4355 22.1105L43.2732 24.1853C43.3917 24.3631 43.451 24.4817 43.5103 24.6002C43.5696 24.7188 43.5696 24.8373 43.5696 24.9559C43.5696 25.193 43.5103 25.3709 43.3917 25.5487C43.2139 25.6672 43.0361 25.7858 42.8582 25.9636ZM34.6777 11.6774C34.2628 11.6774 33.7885 11.7367 33.3736 11.9145C32.9586 12.0924 32.5437 12.3295 32.188 12.6259C31.8323 12.9223 31.4767 13.2779 31.1803 13.6336C30.8839 13.9893 30.6468 14.4042 30.4689 14.7599H39.1829C38.9458 14.345 38.7087 13.93 38.4123 13.5151C38.1159 13.1594 37.8195 12.8037 37.4638 12.5073C37.1082 12.2109 36.6932 11.9738 36.219 11.8552C35.804 11.796 35.2705 11.6774 34.6777 11.6774Z" fill="#FF4C13"/>
<path d="M47.4232 7.11301C47.5417 6.99445 47.7196 6.93517 47.8974 6.87589C48.0752 6.81661 48.1938 6.81661 48.3716 6.81661H50.9799C51.1577 6.81661 51.3356 6.87589 51.5134 6.93517C51.632 6.99445 51.8098 7.11301 51.8691 7.23156C51.9876 7.35012 52.0469 7.52796 52.1062 7.64652C52.1655 7.76507 52.2248 7.94291 52.284 8.12075L52.6397 9.60272C52.8175 9.24705 53.1139 8.89138 53.4696 8.5357C53.8253 8.18003 54.2995 7.82435 54.8923 7.52796C55.4851 7.23156 56.1372 6.99445 56.8485 6.75733C57.5599 6.5795 58.3898 6.46094 59.3382 6.46094C60.6424 6.46094 61.7687 6.69805 62.8357 7.23156C63.8434 7.7058 64.7326 8.41714 65.444 9.24705C66.1553 10.1362 66.6888 11.144 67.0445 12.2703C67.4002 13.3966 67.578 14.6414 67.578 15.9456V27.1493C67.578 27.5642 67.4595 27.9199 67.2816 28.157C67.1038 28.3942 66.8074 28.5127 66.3924 28.5127H62.4207C61.9465 28.5127 61.5908 28.4534 61.413 28.2756C61.2352 28.0978 61.1166 27.8014 61.1166 27.3271V16.1827C61.1166 15.7085 60.998 15.2342 60.7609 14.8193C60.5238 14.4043 60.2274 13.9894 59.8717 13.6337C59.5161 13.278 59.1011 13.0409 58.6269 12.8631C58.1527 12.6852 57.6784 12.5667 57.2042 12.5667C56.7892 12.5667 56.3743 12.6852 55.9593 12.8631C55.5444 13.0409 55.1294 13.278 54.7738 13.6337C54.4181 13.9301 54.1217 14.345 53.8846 14.76C53.6475 15.1749 53.5289 15.6492 53.4696 16.1827V27.2679C53.4696 27.4457 53.4103 27.6828 53.3511 27.8606C53.2918 28.0385 53.1732 28.2163 52.9954 28.2756C52.8175 28.3942 52.699 28.4534 52.5804 28.4534C52.4619 28.5127 52.284 28.5127 52.1062 28.5127H48.2531C47.7788 28.5127 47.4232 28.3942 47.186 28.157C46.9489 27.9199 46.8896 27.6235 46.8896 27.2086V8.12075C46.8896 7.88363 46.9489 7.7058 47.0082 7.52796C47.1268 7.35012 47.2453 7.23156 47.4232 7.11301Z" fill="#FF4C13"/>
<path d="M70.9947 9.82127C70.4611 9.99911 70.1055 10.5326 70.1055 11.0661V27.19C70.1055 28.0792 70.5204 28.4941 71.3503 28.4941H75.2627C75.6777 28.4941 76.0334 28.3756 76.2705 28.1385C76.5076 27.9014 76.6262 27.605 76.6262 27.1307V9.1692C76.6262 8.45785 75.9148 7.98362 75.2627 8.22074L70.9947 9.82127Z" fill="#FF4C13"/>
<path d="M76.2695 1.0669C76.0324 0.889066 75.6767 0.770508 75.321 0.770508H71.3493C70.9344 0.770508 70.5787 0.889066 70.4009 1.0669C70.2231 1.24474 70.1045 1.60041 70.1045 2.07464V5.74994C70.1045 6.04633 70.3416 6.34273 70.6973 6.34273C70.7566 6.34273 70.8751 6.34273 70.9344 6.28345L75.8546 4.50508C76.3288 4.32725 76.6845 3.85301 76.6845 3.37878V2.13392C76.6252 1.65969 76.5066 1.30402 76.2695 1.0669ZM71.1715 6.16489C71.1715 6.10561 71.1715 6.10561 71.1715 6.16489C71.1715 6.10561 71.1715 6.10561 71.1715 6.16489Z" fill="#FBB13C"/>
<path d="M81.272 3.43811C81.272 3.08243 81.3905 2.84532 81.6276 2.66748C81.8648 2.48964 82.2204 2.31181 82.6354 2.19325L86.4885 0.829834C86.5478 0.829834 86.6071 0.829834 86.6663 0.829834C86.7256 0.829834 86.7849 0.829834 86.7849 0.829834C87.1999 0.829834 87.4963 0.948392 87.6148 1.18551C87.7334 1.42262 87.8519 1.7783 87.8519 2.13397V6.81701H90.1638C90.5195 6.81701 90.8159 6.93557 91.053 7.1134C91.2901 7.35052 91.4087 7.64691 91.4087 8.06187V11.3815C91.4087 11.8557 91.2901 12.2114 91.053 12.4485C90.8159 12.6856 90.5195 12.8042 90.1638 12.8042H87.8519V27.209C87.8519 27.6239 87.7334 27.9796 87.4963 28.2167C87.2591 28.4538 86.9035 28.5724 86.4292 28.5724H82.5761C81.6869 28.5724 81.272 28.1574 81.272 27.2682V12.8635H79.4936C78.6044 12.8635 78.1895 12.3892 78.1895 11.5V8.18043C78.1895 7.29124 78.6044 6.87629 79.4936 6.87629H81.272V3.43811Z" fill="#FF4C13"/>
<path d="M92.4756 17.7239C92.4756 16.6568 92.5941 15.6491 92.8905 14.7006C93.1869 13.7522 93.5426 12.863 94.0168 12.0331C94.4911 11.2032 95.0839 10.4326 95.7359 9.78048C96.388 9.12842 97.1586 8.53563 97.9885 8.06139C98.8184 7.58716 99.7076 7.23149 100.656 6.93509C101.605 6.69798 102.612 6.52014 103.679 6.52014C105.221 6.52014 106.703 6.81654 108.066 7.40933C109.429 8.00212 110.615 8.77274 111.623 9.78048C112.63 10.7882 113.401 11.9738 113.994 13.3372C114.587 14.7006 114.883 16.1826 114.883 17.7831C114.883 18.8502 114.764 19.8579 114.468 20.8064C114.172 21.7548 113.816 22.644 113.342 23.4739C112.868 24.3038 112.275 25.0745 111.623 25.7265C110.971 26.3786 110.2 26.9714 109.37 27.4456C108.54 27.9198 107.651 28.2755 106.703 28.5719C105.754 28.809 104.746 28.9869 103.739 28.9869C102.672 28.9869 101.664 28.8683 100.715 28.5719C99.7669 28.3348 98.8777 27.9198 98.0478 27.4456C97.2179 26.9714 96.4473 26.3786 95.7952 25.7265C95.1431 25.0745 94.5503 24.3038 94.0761 23.4739C93.6019 22.644 93.1869 21.7548 92.9498 20.8064C92.7127 19.8579 92.4756 18.7316 92.4756 17.7239ZM98.6999 17.7239C98.6999 18.4945 98.8184 19.2058 99.0556 19.8579C99.2927 20.51 99.6483 21.1028 100.063 21.577C100.478 22.0512 101.012 22.4069 101.605 22.7033C102.197 22.9997 102.909 23.1183 103.679 23.1183C104.391 23.1183 105.102 22.9997 105.695 22.7033C106.288 22.4069 106.821 22.0512 107.236 21.577C107.651 21.1028 107.947 20.51 108.185 19.8579C108.422 19.2058 108.54 18.4945 108.54 17.7239C108.54 17.0125 108.422 16.3012 108.185 15.6491C107.947 14.997 107.651 14.4042 107.236 13.93C106.821 13.4558 106.288 13.0408 105.695 12.7444C105.102 12.448 104.45 12.3295 103.679 12.3295C102.909 12.3295 102.257 12.448 101.605 12.7444C101.012 13.0408 100.478 13.4558 100.063 13.93C99.6483 14.4042 99.2927 14.997 99.0556 15.6491C98.8184 16.3012 98.6999 16.9532 98.6999 17.7239Z" fill="#FF4C13"/>
<path d="M6.04645 26.8534C5.9279 27.0905 5.86862 27.2683 5.80934 27.4462C5.75006 27.624 5.69078 27.7426 5.57222 27.8611C5.51294 27.9797 5.39439 28.0389 5.27583 28.0982C5.15727 28.1575 4.97943 28.1575 4.74232 28.1575H1.36342C0.474232 28.1575 0 27.7426 0 26.8534V1.30414C0 1.1263 0.059279 0.948463 0.118558 0.770626C0.177837 0.59279 0.296395 0.474232 0.414953 0.355674C0.533511 0.237116 0.652069 0.177837 0.829906 0.118558C0.948463 0.059279 1.1263 0 1.24486 0H5.09799C5.51294 0 5.86862 0.118558 6.10573 0.355674C6.40213 0.652069 6.52069 0.948463 6.52069 1.30414V8.41761C6.81708 8.06194 7.17275 7.76554 7.52843 7.46915C7.8841 7.17275 8.29906 6.93564 8.71401 6.7578C9.12896 6.57996 9.60319 6.40213 10.1367 6.28357C10.6702 6.16501 11.2037 6.10573 11.8558 6.10573C13.397 6.10573 14.8197 6.40213 16.1239 6.99492C17.428 7.58771 18.5543 8.35833 19.5028 9.36608C20.4512 10.3738 21.1626 11.5594 21.6961 12.9228C22.2296 14.2862 22.4667 15.7682 22.4667 17.3687C22.4667 18.9693 22.2296 20.392 21.6961 21.7554C21.1626 23.1188 20.4512 24.3044 19.5028 25.3121C18.5543 26.3199 17.428 27.0905 16.1239 27.6833C14.8197 28.2761 13.397 28.5725 11.8558 28.5725C11.263 28.5725 10.7295 28.5132 10.196 28.3353C9.66247 28.1575 9.18824 27.9797 8.71401 27.7426C8.23978 27.5054 7.82482 27.209 7.40987 26.9126C6.99492 26.6163 6.63924 26.3199 6.34285 26.0235L6.04645 26.8534ZM16.361 17.3095C16.361 16.5981 16.2424 15.8868 16.0053 15.2347C15.7682 14.5826 15.4125 13.9898 14.9976 13.5156C14.5826 13.0414 14.0491 12.6264 13.4563 12.33C12.8635 12.0336 12.1522 11.9151 11.4408 11.9151C10.7295 11.9151 9.95887 12.0336 9.3068 12.33C8.65473 12.6264 8.06194 13.0414 7.58771 13.5156C7.11348 13.9898 6.7578 14.5826 6.46141 15.2347C6.16501 15.8868 6.04645 16.5981 6.04645 17.3095V17.5466C6.10573 18.2579 6.22429 18.91 6.52069 19.5621C6.81708 20.2141 7.17275 20.7476 7.64699 21.2219C8.12122 21.6961 8.65473 22.0518 9.3068 22.2889C9.95887 22.526 10.6109 22.7038 11.3816 22.7038C12.1522 22.7038 12.8043 22.5853 13.397 22.2889C13.9898 21.9925 14.5233 21.6368 14.9383 21.1626C15.3533 20.6884 15.7089 20.0956 15.946 19.4435C16.2424 18.7914 16.361 18.0801 16.361 17.3095Z" fill="#FF4C13"/>
</g>
<defs>
<clipPath id="clip0_8912_159036">
<rect width="115" height="28.9764" fill="white"/>
</clipPath>
</defs>
</svg>
