<svg width="69" height="70" viewBox="0 0 69 70" fill="none" xmlns="http://www.w3.org/2000/svg">
<path d="M0 0V70H68.6457V68.7137V0H0ZM2.49253 2.50484H66.0858V67.4275H2.49253V2.50484Z" fill="#C50000"/>
<path d="M50.3211 4.73877V31.0057H42.9783V16.2475H43.0456L43.9887 14.7581C43.9887 14.7581 47.2897 14.7581 47.2897 13.7426H45.6055C44.4603 13.7426 43.3824 13.3364 42.5067 12.6595L34.2881 6.09273L26.0695 12.6595C25.1937 13.3364 24.1158 13.7426 22.9706 13.7426H21.2865C21.3539 14.7581 24.6548 14.7581 24.6548 14.7581L25.5979 16.2475V31.0057H17.5814V4.73877H4.37769V65.261H17.5814V33.5105H50.2537V65.261H63.4574V4.73877H50.3211ZM30.6503 16.2475H34.3554H38.0606V31.0057H30.6503V16.2475Z" fill="#C50000"/>
<path d="M36.9169 39.2651H22.6354V64.7197H28.4962V45.1549H36.9169C38.399 45.1549 39.5442 46.3735 39.5442 47.7951V64.7197H45.405V47.7951C45.405 43.0562 41.6325 39.2651 36.9169 39.2651Z" fill="#C50000"/>
</svg>
